<svg width="564" height="219" viewBox="0 0 564 219" fill="none" xmlns="http://www.w3.org/2000/svg">
<path d="M239.19 104.18C211.95 104.18 189.78 81.9 189.78 54.51C189.78 27.12 211.95 4.84 239.19 4.84C266.43 4.84 288.74 27.12 288.74 54.51C288.74 81.9 266.51 104.18 239.19 104.18ZM239.19 21.3C221.09 21.3 206.38 36.2 206.38 54.52C206.38 72.84 221.09 87.74 239.19 87.74C257.29 87.74 272.14 72.84 272.14 54.52C272.14 36.2 257.36 21.3 239.19 21.3ZM357.7 102.83V66.41C357.7 48.47 344.83 35.94 326.42 35.94C308.01 35.94 296.21 48.47 296.21 66.41V102.83H312.54V66.29C312.46 61.94 313.88 58.06 316.55 55.34C319.06 52.79 322.47 51.44 326.42 51.44C335.08 51.44 341.37 57.85 341.37 66.68V102.83H357.7ZM400.86 104.18C381.11 104.18 366.2 89.52 366.2 70.06C366.2 50.6 381.51 35.93 400.32 35.93C419.13 35.93 434.18 50.23 434.18 69.92V75.64H381.64L382.02 76.96C384.43 85.26 391.34 90.01 401 90.01C408.41 90.01 414.71 86.25 418.07 79.9L430.97 87.59C424.7 98.29 414.05 104.17 400.86 104.17V104.18ZM400.46 50.1C392.61 50.1 386.04 54.33 382.89 61.4L382.23 62.86H418.01L417.53 61.49C414.98 54.15 408.92 50.11 400.45 50.11L400.46 50.1ZM266.3 188.27C266.3 170.52 252.56 164.6 238.48 160.04L236.35 159.34C226.37 156.05 217.76 153.21 217.76 145.4C217.76 138.12 223.47 133.41 232.32 133.41C239.85 133.41 245.84 136.4 250.12 142.3L263.88 131.9C256.98 124.94 248.21 118.72 232.18 118.72C214.04 118.72 200.35 130.48 200.35 146.08C200.35 163.45 212.7 168.65 227.62 173.21L229.26 173.72C239.29 176.78 248.76 179.67 248.76 188.13C248.76 194.88 243.83 202.15 233 202.15C224.3 202.15 216.46 197.52 211.34 189.4L195.96 201.52C206.22 212.8 218.06 218.06 233.12 218.06C254.9 218.06 266.3 203.08 266.3 188.27ZM309.78 216.71V200.93H307.29C297.49 200.93 291.65 194.17 291.65 182.86V165.73H309.78V151.17H291.65V131.56H275.19V182.86C275.19 204.37 286.94 216.71 307.42 216.71H309.78ZM381.12 187.59V151.17H364.79V187.7C364.87 192.05 363.45 195.93 360.79 198.65C358.28 201.2 354.87 202.55 350.92 202.55C342.25 202.55 335.96 196.14 335.96 187.31V151.16H319.63V187.58C319.63 205.52 332.5 218.05 350.92 218.05C369.34 218.05 381.12 205.52 381.12 187.58V187.59ZM423.26 218.06C404.37 218.06 389.01 202.76 389.01 183.94C389.01 160.4 407.46 149.81 420.56 149.81C428.68 149.81 435.48 152.32 440.24 157.08L442 158.84V120.06H458.47V183.93C458.47 202.74 442.67 218.05 423.26 218.05V218.06ZM423.26 165.33C413.05 165.33 405.06 173.51 405.06 183.95C405.06 194.39 413.05 202.56 423.26 202.56C433.47 202.56 441.47 194.39 441.47 183.95C441.47 173.51 433.47 165.33 423.26 165.33ZM470.02 216.71V151.17H486.49V216.71H470.02ZM470.02 142.34V125.89H486.49V142.34H470.02ZM529.53 218.06C510.79 218.06 495.53 202.76 495.53 183.94C495.53 165.12 510.79 149.81 529.53 149.81C548.27 149.81 563.52 165.12 563.52 183.94C563.52 202.76 548.27 218.06 529.53 218.06ZM529.53 165.33C519.47 165.33 511.6 173.51 511.6 183.95C511.6 194.39 519.48 202.56 529.53 202.56C539.58 202.56 547.6 194.21 547.6 183.95C547.6 173.69 539.5 165.33 529.53 165.33ZM0 12.97C0 5.80999 5.80997 0 12.97 0C20.13 0 25.9399 5.80999 25.9399 12.97C25.9399 20.13 20.13 25.94 12.97 25.94C5.80997 25.94 0 20.13 0 12.97ZM23.34 12.97C23.34 7.15999 18.88 2.39 12.97 2.39C7.05997 2.39 2.58997 7.15999 2.58997 12.97C2.58997 18.78 7.05997 23.55 12.97 23.55C18.88 23.55 23.34 18.78 23.34 12.97ZM8.37 6.23H13.3799C16.5199 6.23 18.43 8.19999 18.43 10.49C18.43 12.42 17.46 14.15 15.52 14.75L18.39 19.18H15.45L11.79 13.12H12.99C14.62 13.12 15.79 12.15 15.79 10.59C15.79 9.03 14.55 8.40999 13.03 8.40999H10.85V19.18H8.35999V6.23999L8.37 6.23ZM149.64 149.13H82.03V216.74H149.64V149.13ZM148.78 10.81H81.17C81.17 49.82 49.43 81.56 10.41 81.56V149.17C86.71 149.17 148.78 87.1 148.78 10.8V10.81Z" fill="white"/>
</svg>
