<svg width="494" height="222" viewBox="0 0 494 222" fill="none" xmlns="http://www.w3.org/2000/svg">
<path d="M197.46 56.95C197.46 28.96 219.9 6.23999 247.89 6.23999C275.88 6.23999 298.47 28.96 298.47 56.95C298.47 84.94 276.02 107.66 247.89 107.66C219.76 107.66 197.46 85.08 197.46 56.95ZM279.8 56.95C279.8 39.24 265.6 24.77 247.88 24.77C230.16 24.77 216.1 39.24 216.1 56.95C216.1 74.66 230.16 89.13 247.88 89.13C265.6 89.13 279.8 74.66 279.8 56.95ZM303.87 68.85C303.87 50.87 316.32 37.34 335.11 37.34C353.9 37.34 367.42 50.59 367.42 68.85V106.31H349.03V69.13C349.03 60.88 343.09 54.9301 335.11 54.9301C327.13 54.9301 322.13 61.02 322.26 68.72V106.31H303.87V68.85ZM373.85 72.51C373.85 53.04 389.54 37.35 409.01 37.35C429.69 37.35 443.9 52.9 443.9 72.38V79.14H391.7C393.86 86.58 399.95 91.4399 409.69 91.4399C417.12 91.4399 423.35 87.39 426.32 80.9L441.06 89.6899C435.25 100.23 424.56 107.67 409.56 107.67C388.46 107.67 373.85 91.99 373.85 72.52V72.51ZM392.52 64.26H425.25C422.81 57.23 417 53.5699 409.16 53.5699C401.32 53.5699 395.37 57.9 392.53 64.26H392.52ZM197.46 170.83C197.46 142.7 219.5 120.12 249.11 120.12C271.55 120.12 291.03 135.4 296.84 157.17H276.42C271.56 145.68 262.63 138.64 248.16 138.64C230.45 138.64 216.38 153.11 216.38 170.82C216.38 188.53 230.44 203 248.16 203C261.82 203 270.6 196.24 275.88 185.29H296.71C290.49 206.65 271.28 221.52 249.11 221.52C218.95 221.52 197.46 198.94 197.46 170.81V170.83ZM301.99 186.38C301.99 166.91 317.54 151.22 337.01 151.22C356.48 151.22 371.89 166.91 371.89 186.38V220.18H353.64V212.88C349.72 218.43 344.04 221.27 336.46 221.27C317.39 221.27 301.99 206.39 301.99 186.39V186.38ZM354.18 186.38C354.18 176.64 346.61 168.8 337.01 168.8C327.41 168.8 319.83 176.65 319.83 186.38C319.83 196.11 327.27 203.96 337.01 203.96C346.75 203.96 354.18 196.12 354.18 186.38ZM379.33 187.46C379.33 165.83 391.36 152.57 412.59 152.57H420.44V170.56H412.46C403.27 170.56 397.59 176.91 397.72 187.6V220.19H379.33V187.47V187.46ZM423.51 186.38C423.51 166.91 439.2 151.22 458.67 151.22C479.35 151.22 493.56 166.77 493.56 186.25V193.01H441.36C443.52 200.45 449.61 205.31 459.35 205.31C466.78 205.31 473.01 201.26 475.98 194.77L490.72 203.56C484.91 214.1 474.22 221.54 459.22 221.54C438.12 221.54 423.51 205.86 423.51 186.39V186.38ZM442.18 178.13H474.91C472.47 171.1 466.66 167.44 458.82 167.44C450.98 167.44 445.03 171.77 442.19 178.13H442.18ZM149.94 152.47H82.33V220.08H149.94V152.47ZM149.07 14.15H81.4601C81.4601 53.16 49.7301 84.9 10.7101 84.9V152.51C87.0001 152.51 149.07 90.44 149.07 14.15ZM0.300049 13.89C0.300049 6.73001 6.11005 0.920044 13.2701 0.920044C20.43 0.920044 26.2401 6.73001 26.2401 13.89C26.2401 21.05 20.43 26.86 13.2701 26.86C6.11005 26.86 0.300049 21.05 0.300049 13.89ZM23.64 13.89C23.64 8.08001 19.18 3.31006 13.2701 3.31006C7.36005 3.31006 2.89005 8.08001 2.89005 13.89C2.89005 19.7 7.36005 24.47 13.2701 24.47C19.18 24.47 23.64 19.7 23.64 13.89ZM8.67004 7.15002H13.68C16.82 7.15002 18.73 9.12003 18.73 11.41C18.73 13.34 17.7601 15.07 15.8201 15.67L18.69 20.1H15.75L12.09 14.04H13.29C14.92 14.04 16.09 13.07 16.09 11.51C16.09 9.95001 14.85 9.32996 13.33 9.32996H11.15V20.1H8.66005V7.16003L8.67004 7.15002Z" fill="black"/>
</svg>
